<svg width="26" height="36" viewBox="0 0 26 36" fill="none" xmlns="http://www.w3.org/2000/svg">
<path d="M11.7975 0.190018C9.34563 0.852127 7.09553 2.67292 5.66788 5.15582C4.20919 7.69891 2.50221 13.4623 1.77287 18.3528C1.58665 19.5566 1.50907 21.1216 1.50907 23.5293C1.50907 26.5389 1.55562 27.1859 1.85046 28.5402C2.03668 29.3829 2.30048 30.3159 2.42462 30.6018C2.53325 30.8877 2.64188 31.2188 2.64188 31.3391C2.64188 31.4746 2.05219 32.2571 1.32285 33.0997C-0.104802 34.74 -0.2755 35.2064 0.3297 35.7331C0.640059 36.004 1.01249 36.019 10.4164 35.9889C16.8718 35.9588 20.2858 35.8986 20.4875 35.7933C20.86 35.5977 21.0617 34.9356 20.8444 34.6045C20.5496 34.1531 19.9599 33.9876 18.5788 33.9876H17.1977L18.2995 32.8439C20.3323 30.7222 21.5583 28.0437 21.8221 25.0642L21.9307 23.8754L22.3031 24.3419C22.7842 24.9438 23.467 24.9739 23.8394 24.4322C24.0411 24.1312 24.0722 23.8453 23.9791 22.9725C23.8239 21.4527 23.017 18.5334 22.4583 17.5101C22.3652 17.3446 22.3031 16.5471 22.3342 15.6893C22.4118 12.6196 21.2169 10.0765 19.9444 10.6333C19.4168 10.874 19.2926 11.4609 19.634 12.1531C20.2392 13.3569 20.3323 14.0943 20.3323 17.8111C20.3323 21.2119 20.1151 24.0409 19.7271 25.9369C18.9202 29.8344 16.1891 32.9342 12.6665 33.9123C11.9837 34.1079 11.3164 34.1531 9.9198 34.123C8.91113 34.0929 8.02661 33.9876 7.9335 33.9123C7.84039 33.807 8.02661 33.4458 8.50766 32.8138C9.65599 31.3391 10.4009 29.7892 10.6957 28.2393L10.8974 27.2461L10.2457 26.584C8.64732 24.9889 7.09553 22.6866 6.21101 20.61C5.49718 18.9096 5.63684 18.097 6.62999 18.2174C7.08001 18.2625 7.43692 18.8193 8.29041 20.7605C8.67836 21.6483 10.075 23.6647 10.9129 24.5525C11.6733 25.335 12.3096 25.4855 12.7751 24.9889C13.163 24.5826 13.101 24.2516 12.4027 22.5361C10.9285 18.9246 9.93532 15.2229 9.93532 13.2967C9.93532 9.5498 12.3406 6.7509 15.5839 6.7509C16.8563 6.7509 17.9271 7.097 18.8892 7.80425L19.6651 8.37607L20.3168 7.63872C21.1858 6.64556 22.0393 6.19412 23.6842 5.84802C25.4998 5.47183 25.9809 4.97525 25.3136 4.17771C25.0343 3.83161 24.9101 3.81656 22.8618 3.77142L20.7203 3.71122L20.3323 3.10931C19.5099 1.81519 17.7719 0.641457 16.0649 0.205067C14.9787 -0.0657959 12.7751 -0.0657959 11.7975 0.190018ZM16.9805 3.21465C17.4926 3.66608 17.5081 4.2379 16.996 4.71943C16.5925 5.12572 16.2822 5.18592 15.8166 4.9301C15.0873 4.56895 15.1338 3.36512 15.8787 3.01902C16.3908 2.77826 16.5304 2.80835 16.9805 3.21465Z" fill="white"/>
<path d="M13.5044 13.6729C12.9924 13.8685 12.4182 14.7112 12.4182 15.2831C12.4182 15.5389 12.5734 15.9301 12.7596 16.1709C13.2406 16.7728 15.5063 18.9397 15.6614 18.9397C15.7235 18.9397 16.4839 18.2324 17.3529 17.3747C18.6874 16.0655 18.9357 15.7495 18.9357 15.3432C18.9357 14.3802 18.1288 13.5224 17.2288 13.5224C16.7943 13.5224 16.0339 13.9137 15.8477 14.2297C15.708 14.4855 15.6614 14.4705 15.258 14.0943C14.7614 13.6278 14.0786 13.4623 13.5044 13.6729Z" fill="white"/>
</svg>
